<svg width="70" height="21" viewBox="0 0 70 21" fill="none" xmlns="http://www.w3.org/2000/svg">
<path d="M14.0344 16.576L15.0251 16.7116L15.2431 15.119L13.7181 15.6273L14.0344 16.576ZM13.7224 18.856L14.2055 19.7316L14.6451 19.489L14.7131 18.9916L13.7224 18.856ZM8.99438 17.392L9.95914 17.1289L9.33256 14.8314L8.131 16.8874L8.99438 17.392ZM1.96238 18.472L2.58707 17.6911L1.96238 18.472ZM2.08237 13.768L2.73731 14.5237L2.73855 14.5226L2.08237 13.768ZM5.68238 12.304L5.49127 11.3224L5.48445 11.3238L5.68238 12.304ZM8.39437 11.776L8.58548 12.7576L9.39437 12.6001V11.776H8.39437ZM7.93837 10.048L8.66338 9.35925V9.35925L7.93837 10.048ZM5.20238 10L4.60238 9.2L5.20238 10ZM4.45837 11.416L4.17998 12.3765L5.25563 12.6882L5.44411 11.5843L4.45837 11.416ZM1.14637 10.456L0.161863 10.2807L0.00418663 11.1661L0.867979 11.4165L1.14637 10.456ZM2.87437 7.744L3.43557 8.57176L3.44503 8.56519L2.87437 7.744ZM10.9624 7.912L10.344 8.69787L10.9624 7.912ZM7.72237 16.144L8.28388 16.9715L8.29383 16.9647L8.30361 16.9577L7.72237 16.144ZM8.39437 13.864H9.39437V12.6023L8.166 12.8904L8.39437 13.864ZM6.45037 14.32L6.222 13.3464L6.21491 13.3481L6.20784 13.3499L6.45037 14.32ZM5.34637 14.8L5.99233 15.5634L5.99717 15.5593L5.34637 14.8ZM5.34637 16.336L5.99232 15.5726V15.5726L5.34637 16.336ZM13.2904 17.672C13.6535 17.672 14.0191 17.6352 14.3506 17.5247L13.7181 15.6273C13.6656 15.6448 13.5353 15.672 13.2904 15.672V17.672ZM13.0436 16.4404L12.7316 18.7204L14.7131 18.9916L15.0251 16.7116L13.0436 16.4404ZM13.2393 17.9804C12.9475 18.1414 12.5755 18.24 12.0904 18.24V20.24C12.8532 20.24 13.5692 20.0826 14.2055 19.7316L13.2393 17.9804ZM12.0904 18.24C11.3323 18.24 10.8405 18.1029 10.5329 17.9193C10.2539 17.7528 10.0638 17.5126 9.95914 17.1289L8.02961 17.6551C8.26097 18.5034 8.7549 19.1872 9.50784 19.6367C10.2323 20.0691 11.1204 20.24 12.0904 20.24V18.24ZM8.131 16.8874C7.66896 17.678 6.68484 18.24 4.72237 18.24V20.24C7.01591 20.24 8.87979 19.57 9.85775 17.8966L8.131 16.8874ZM4.72237 18.24C3.64753 18.24 2.98386 18.0086 2.58707 17.6911L1.33768 19.2529C2.22089 19.9594 3.39722 20.24 4.72237 20.24V18.24ZM2.58707 17.6911C2.2305 17.4059 2.00238 16.9768 2.00238 16.24H0.00237465C0.00237465 17.4552 0.414251 18.5141 1.33768 19.2529L2.58707 17.6911ZM2.00238 16.24C2.00238 15.4815 2.25436 14.9422 2.7373 14.5237L1.42744 13.0123C0.470388 13.8418 0.00237465 14.9505 0.00237465 16.24H2.00238ZM2.73855 14.5226C3.27982 14.0519 4.27678 13.608 5.8803 13.2842L5.48445 11.3238C3.75996 11.672 2.35693 12.2041 1.4262 13.0134L2.73855 14.5226ZM5.87348 13.2856L8.58548 12.7576L8.20327 10.7944L5.49127 11.3224L5.87348 13.2856ZM9.39437 11.776V11.344H7.39437V11.776H9.39437ZM9.39437 11.344C9.39437 10.6064 9.18288 9.90609 8.66338 9.35925L7.21338 10.7367C7.30188 10.8299 7.39437 10.9936 7.39437 11.344H9.39437ZM8.66338 9.35925C8.13398 8.80199 7.43438 8.568 6.69038 8.568V10.568C7.00237 10.568 7.13477 10.654 7.21338 10.7367L8.66338 9.35925ZM6.69038 8.568C5.92432 8.568 5.20094 8.75108 4.60238 9.2L5.80238 10.8C5.97181 10.6729 6.24043 10.568 6.69038 10.568V8.568ZM4.60238 9.2C3.9458 9.69243 3.61088 10.438 3.47264 11.2477L5.44411 11.5843C5.52987 11.082 5.69095 10.8836 5.80238 10.8L4.60238 9.2ZM4.73677 10.4555L1.42477 9.49553L0.867979 11.4165L4.17998 12.3765L4.73677 10.4555ZM2.13089 10.6313C2.2937 9.71703 2.72477 9.05359 3.43553 8.57171L2.31322 6.91629C1.13599 7.71441 0.415045 8.85897 0.161863 10.2807L2.13089 10.6313ZM3.44503 8.56519C4.1675 8.06314 5.21688 7.76 6.69038 7.76V5.76C4.96387 5.76 3.46925 6.11286 2.30372 6.92281L3.44503 8.56519ZM6.69038 7.76C8.44664 7.76 9.61393 8.1234 10.344 8.69787L11.5808 7.12613C10.3588 6.16459 8.6781 5.76 6.69038 5.76V7.76ZM10.344 8.69787C11.0224 9.2317 11.4264 10.0585 11.4264 11.368H13.4264C13.4264 9.60551 12.8544 8.1283 11.5808 7.12613L10.344 8.69787ZM11.4264 11.368V15.736H13.4264V11.368H11.4264ZM11.4264 15.736C11.4264 16.1832 11.5279 16.705 11.9076 17.1163C12.3012 17.5427 12.8268 17.672 13.2904 17.672V15.672C13.234 15.672 13.2274 15.6641 13.252 15.6729C13.2652 15.6777 13.2853 15.6866 13.3089 15.7019C13.3328 15.7175 13.3562 15.737 13.3772 15.7597C13.4211 15.8073 13.4349 15.8473 13.4362 15.8514C13.4362 15.8517 13.4264 15.8182 13.4264 15.736H11.4264ZM6.21038 17.6C6.96329 17.6 7.66426 17.3919 8.28388 16.9715L7.16087 15.3165C6.88449 15.5041 6.57745 15.6 6.21038 15.6V17.6ZM8.30361 16.9577C8.99122 16.4666 9.39437 15.7584 9.39437 14.896H7.39437C7.39437 15.0576 7.34953 15.1814 7.14114 15.3303L8.30361 16.9577ZM9.39437 14.896V13.864H7.39437V14.896H9.39437ZM8.166 12.8904L6.222 13.3464L6.67875 15.2936L8.62275 14.8376L8.166 12.8904ZM6.20784 13.3499C5.64629 13.4902 5.09697 13.6967 4.69558 14.0407L5.99717 15.5593C6.04379 15.5193 6.23046 15.4058 6.69291 15.2901L6.20784 13.3499ZM4.70043 14.0366C4.21645 14.4461 4.03437 15.0126 4.03437 15.568H6.03437C6.03437 15.5019 6.04467 15.486 6.03884 15.5004C6.03586 15.5077 6.03008 15.5193 6.02055 15.5325C6.01099 15.5457 6.00083 15.5562 5.99232 15.5634L4.70043 14.0366ZM4.03437 15.568C4.03437 16.1234 4.21645 16.6899 4.70043 17.0994L5.99232 15.5726C6.00083 15.5798 6.01099 15.5903 6.02055 15.6035C6.03008 15.6167 6.03586 15.6283 6.03884 15.6356C6.04467 15.65 6.03437 15.6341 6.03437 15.568H4.03437ZM4.70043 17.0994C5.14372 17.4745 5.68909 17.6 6.21038 17.6V15.6C5.99566 15.6 5.96503 15.5495 5.99232 15.5726L4.70043 17.0994ZM26.9717 8.416L27.7537 7.79269L26.9717 8.416ZM26.9957 17.608L27.7788 18.2299L26.9957 17.608ZM20.8757 18.496L20.2787 19.2982L20.2891 19.306L20.2997 19.3135L20.8757 18.496ZM19.3397 16.456L20.2694 16.0876L18.3408 16.4089L19.3397 16.456ZM19.2197 19V20H20.1736L20.2186 19.0471L19.2197 19ZM15.6437 19H14.6437V20H15.6437V19ZM15.6437 1.912V0.912H14.6437V1.912H15.6437ZM19.7237 1.912H20.7237V0.912H19.7237V1.912ZM19.7237 9.016H18.7237L20.6262 9.44673L19.7237 9.016ZM21.1397 7.36L20.6 6.51806L20.5901 6.52458L21.1397 7.36ZM23.5877 15.448L22.7906 14.8441L22.7847 14.8519L22.779 14.8598L23.5877 15.448ZM23.5877 10.552L22.779 11.1402L22.7847 11.1481L22.7906 11.1559L23.5877 10.552ZM20.2997 10.576L21.1167 11.1527L20.2997 10.576ZM20.2997 15.448L19.491 16.0362L19.4967 16.0441L19.5026 16.0519L20.2997 15.448ZM23.3477 7.76C24.6099 7.76 25.5178 8.19633 26.1897 9.03931L27.7537 7.79269C26.6656 6.42766 25.1574 5.76 23.3477 5.76V7.76ZM26.1897 9.03931C26.8811 9.9067 27.2917 11.2004 27.2917 13.048H29.2917C29.2917 10.9276 28.8223 9.1333 27.7537 7.79269L26.1897 9.03931ZM27.2917 13.048C27.2917 14.8639 26.889 16.1344 26.2126 16.9861L27.7788 18.2299C28.8304 16.9056 29.2917 15.1361 29.2917 13.048H27.2917ZM26.2126 16.9861C25.5643 17.8024 24.6551 18.24 23.3477 18.24V20.24C25.1763 20.24 26.6991 19.5896 27.7788 18.2299L26.2126 16.9861ZM23.3477 18.24C22.5891 18.24 21.9708 18.0443 21.4516 17.6785L20.2997 19.3135C21.1885 19.9397 22.2183 20.24 23.3477 20.24V18.24ZM21.4727 17.6938C20.9433 17.2998 20.5415 16.7744 20.2694 16.0876L18.41 16.8244C18.8099 17.8336 19.432 18.6682 20.2787 19.2982L21.4727 17.6938ZM18.3408 16.4089L18.2208 18.9529L20.2186 19.0471L20.3386 16.5031L18.3408 16.4089ZM19.2197 18H15.6437V20H19.2197V18ZM16.6437 19V1.912H14.6437V19H16.6437ZM15.6437 2.912H19.7237V0.912H15.6437V2.912ZM18.7237 1.912V9.016H20.7237V1.912H18.7237ZM20.6262 9.44673C20.8895 8.89499 21.2446 8.48799 21.6893 8.19542L20.5901 6.52458C19.8188 7.03201 19.2299 7.72901 18.8212 8.58527L20.6262 9.44673ZM21.6794 8.20188C22.12 7.91939 22.6627 7.76 23.3477 7.76V5.76C22.3367 5.76 21.4073 6.00061 20.6 6.51812L21.6794 8.20188ZM21.9317 17.24C22.9335 17.24 23.8029 16.8523 24.3964 16.0362L22.779 14.8598C22.6045 15.0997 22.3699 15.24 21.9317 15.24V17.24ZM24.3848 16.0519C24.9787 15.2679 25.1877 14.1896 25.1877 13H23.1877C23.1877 14.0184 22.9967 14.5721 22.7906 14.8441L24.3848 16.0519ZM25.1877 13C25.1877 11.8104 24.9787 10.7321 24.3848 9.94814L22.7906 11.1559C22.9967 11.4279 23.1877 11.9816 23.1877 13H25.1877ZM24.3964 9.96383C23.8029 9.1477 22.9335 8.76 21.9317 8.76V10.76C22.3699 10.76 22.6045 10.9003 22.779 11.1402L24.3964 9.96383ZM21.9317 8.76C20.9247 8.76 20.0664 9.17242 19.4827 9.99932L21.1167 11.1527C21.301 10.8916 21.5307 10.76 21.9317 10.76V8.76ZM19.4827 9.99932C18.9343 10.7762 18.7237 11.7772 18.7237 12.88H20.7237C20.7237 11.9988 20.8971 11.4638 21.1167 11.1527L19.4827 9.99932ZM18.7237 12.88V13.12H20.7237V12.88H18.7237ZM18.7237 13.12C18.7237 14.2436 18.93 15.2649 19.491 16.0362L21.1084 14.8598C20.9014 14.5751 20.7237 14.0444 20.7237 13.12H18.7237ZM19.5026 16.0519C20.1 16.8405 20.9448 17.24 21.9317 17.24V15.24C21.5426 15.24 21.2994 15.1115 21.0968 14.8441L19.5026 16.0519ZM41.13 8.416L40.4229 9.12311L40.428 9.12823L40.4332 9.13328L41.13 8.416ZM41.13 17.608L41.8319 18.3202L41.832 18.3202L41.13 17.608ZM31.794 17.608L31.0869 18.3151L31.092 18.3202L31.0972 18.3253L31.794 17.608ZM31.794 8.416L32.4959 9.12825L32.496 9.12818L31.794 8.416ZM34.77 10.456L33.9496 9.88421L34.77 10.456ZM34.77 15.544L33.9496 16.1158L34.77 15.544ZM38.178 15.544L37.3576 14.9722V14.9722L38.178 15.544ZM38.178 10.456L37.3576 11.0278L38.178 10.456ZM36.474 7.76C38.2869 7.76 39.5552 8.25545 40.4229 9.12311L41.8371 7.70889C40.4968 6.36855 38.6611 5.76 36.474 5.76V7.76ZM40.4332 9.13328C41.3118 9.98675 41.81 11.2278 41.81 13H43.81C43.81 10.8362 43.1882 9.02125 41.8268 7.69872L40.4332 9.13328ZM41.81 13C41.81 14.7715 41.312 16.0245 40.428 16.8958L41.832 18.3202C43.188 16.9835 43.81 15.1645 43.81 13H41.81ZM40.4281 16.8958C39.5611 17.7502 38.2908 18.24 36.474 18.24V20.24C38.6572 20.24 40.4909 19.6418 41.8319 18.3202L40.4281 16.8958ZM36.474 18.24C34.658 18.24 33.3758 17.7505 32.4908 16.8907L31.0972 18.3253C32.4522 19.6415 34.29 20.24 36.474 20.24V18.24ZM32.5011 16.9009C31.6305 16.0303 31.138 14.7756 31.138 13H29.138C29.138 15.1604 29.7495 16.9777 31.0869 18.3151L32.5011 16.9009ZM31.138 13C31.138 11.2237 31.6307 9.98092 32.4959 9.12825L31.0921 7.70375C29.7493 9.02708 29.138 10.8403 29.138 13H31.138ZM32.496 9.12818C33.3816 8.2552 34.6619 7.76 36.474 7.76V5.76C34.2861 5.76 32.4464 6.3688 31.092 7.70382L32.496 9.12818ZM36.474 8.664C35.4511 8.664 34.5424 9.0337 33.9496 9.88421L35.5904 11.0278C35.7336 10.8223 35.9609 10.664 36.474 10.664V8.664ZM33.9496 9.88421C33.4028 10.6688 33.218 11.7724 33.218 13H35.218C35.218 11.8916 35.4012 11.2992 35.5904 11.0278L33.9496 9.88421ZM33.218 13C33.218 14.2276 33.4028 15.3312 33.9496 16.1158L35.5904 14.9722C35.4012 14.7008 35.218 14.1084 35.218 13H33.218ZM33.9496 16.1158C34.5424 16.9663 35.4511 17.336 36.474 17.336V15.336C35.9609 15.336 35.7336 15.1777 35.5904 14.9722L33.9496 16.1158ZM36.474 17.336C37.4969 17.336 38.4056 16.9663 38.9984 16.1158L37.3576 14.9722C37.2144 15.1777 36.9871 15.336 36.474 15.336V17.336ZM38.9984 16.1158C39.5452 15.3312 39.73 14.2276 39.73 13H37.73C37.73 14.1084 37.5468 14.7008 37.3576 14.9722L38.9984 16.1158ZM39.73 13C39.73 11.7724 39.5452 10.6688 38.9984 9.88421L37.3576 11.0278C37.5468 11.2992 37.73 11.8916 37.73 13H39.73ZM38.9984 9.88421C38.4056 9.0337 37.4969 8.664 36.474 8.664V10.664C36.9871 10.664 37.2144 10.8223 37.3576 11.0278L38.9984 9.88421ZM57.1035 7H58.1035V6H57.1035V7ZM57.1035 19V20H58.1035V19H57.1035ZM53.4555 19L52.4569 19.0537L52.5078 20H53.4555V19ZM53.3355 16.768L54.3341 16.7143L52.4257 16.3529L53.3355 16.768ZM46.1595 18.232L45.4686 18.955L45.4769 18.9628L45.4852 18.9705L46.1595 18.232ZM45.0795 7V6H44.0795V7H45.0795ZM49.1595 7H50.1595V6H49.1595V7ZM49.5675 15.64L48.8056 16.2876L48.8056 16.2876L49.5675 15.64ZM52.4235 15.448L53.1694 16.114L53.1752 16.1075L53.1809 16.1009L52.4235 15.448ZM53.0235 7V6H52.0235V7H53.0235ZM56.1035 7V19H58.1035V7H56.1035ZM57.1035 18H53.4555V20H57.1035V18ZM54.4541 18.9463L54.3341 16.7143L52.3369 16.8217L52.4569 19.0537L54.4541 18.9463ZM52.4257 16.3529C52.1233 17.0157 51.7178 17.4676 51.2219 17.7628C50.7191 18.0621 50.0563 18.24 49.1835 18.24V20.24C50.3267 20.24 51.3639 20.0059 52.2451 19.4812C53.1332 18.9524 53.7957 18.1683 54.2453 17.1831L52.4257 16.3529ZM49.1835 18.24C48.0798 18.24 47.3378 17.9537 46.8338 17.4935L45.4852 18.9705C46.4532 19.8543 47.7272 20.24 49.1835 20.24V18.24ZM46.8504 17.509C46.4038 17.0823 46.0795 16.3258 46.0795 15.016H44.0795C44.0795 16.6182 44.4752 18.0057 45.4686 18.955L46.8504 17.509ZM46.0795 15.016V7H44.0795V15.016H46.0795ZM45.0795 8H49.1595V6H45.0795V8ZM48.1595 7V13.984H50.1595V7H48.1595ZM48.1595 13.984C48.1595 14.8247 48.2936 15.6853 48.8056 16.2876L50.3294 14.9924C50.2974 14.9547 50.1595 14.7113 50.1595 13.984H48.1595ZM48.8056 16.2876C49.3258 16.8997 50.0659 17.12 50.8155 17.12V15.12C50.4451 15.12 50.3532 15.0203 50.3294 14.9924L48.8056 16.2876ZM50.8155 17.12C51.7346 17.12 52.556 16.8011 53.1694 16.114L51.6776 14.782C51.491 14.9909 51.2404 15.12 50.8155 15.12V17.12ZM53.1809 16.1009C53.8006 15.382 54.0235 14.4088 54.0235 13.36H52.0235C52.0235 14.1672 51.8464 14.586 51.6661 14.7951L53.1809 16.1009ZM54.0235 13.36V7H52.0235V13.36H54.0235ZM53.0235 8H57.1035V6H53.0235V8ZM68.7463 18.328L69.3086 19.1549L69.8352 18.7968L69.7335 18.1682L68.7463 18.328ZM67.2103 19L67.4648 19.9671L67.4733 19.9648L67.4818 19.9624L67.2103 19ZM62.0983 18.328L61.4696 19.1056L62.0983 18.328ZM60.9463 15.4H59.9462L59.9464 15.4119L60.9463 15.4ZM60.9463 9.904H61.9463V8.904H60.9463V9.904ZM58.8823 9.904H57.8823V10.904H58.8823V9.904ZM58.8823 7V6H57.8823V7H58.8823ZM60.9463 7V8H61.9463V7H60.9463ZM60.9463 4.312L60.6798 3.34816L59.9463 3.55095V4.312H60.9463ZM65.0263 3.184H66.0263V1.87001L64.7598 2.22016L65.0263 3.184ZM65.0263 7H64.0263V8H65.0263V7ZM68.6263 7H69.6263V6H68.6263V7ZM68.6263 9.904V10.904H69.6263V9.904H68.6263ZM65.0263 9.904V8.904H64.0263V9.904H65.0263ZM68.3383 15.808L69.3255 15.6482L69.0689 14.0633L67.7596 14.9925L68.3383 15.808ZM68.184 17.5011C67.8975 17.6959 67.4922 17.8815 66.9389 18.0376L67.4818 19.9624C68.1764 19.7665 68.7951 19.5041 69.3086 19.1549L68.184 17.5011ZM66.9558 18.0329C66.4303 18.1712 65.8998 18.24 65.3623 18.24V20.24C66.0729 20.24 66.7744 20.1488 67.4648 19.9671L66.9558 18.0329ZM65.3623 18.24C64.0627 18.24 63.234 17.9602 62.727 17.5504L61.4696 19.1056C62.4666 19.9118 63.8139 20.24 65.3623 20.24V18.24ZM62.727 17.5504C62.2871 17.1947 61.9601 16.5562 61.9462 15.3881L59.9464 15.4119C59.9645 16.9318 60.4055 18.2453 61.4696 19.1056L62.727 17.5504ZM61.9463 15.4V9.904H59.9463V15.4H61.9463ZM60.9463 8.904H58.8823V10.904H60.9463V8.904ZM59.8823 9.904V7H57.8823V9.904H59.8823ZM58.8823 8H60.9463V6H58.8823V8ZM61.9463 7V4.312H59.9463V7H61.9463ZM61.2128 5.27584L65.2928 4.14784L64.7598 2.22016L60.6798 3.34816L61.2128 5.27584ZM64.0263 3.184V7H66.0263V3.184H64.0263ZM65.0263 8H68.6263V6H65.0263V8ZM67.6263 7V9.904H69.6263V7H67.6263ZM68.6263 8.904H65.0263V10.904H68.6263V8.904ZM64.0263 9.904V14.728H66.0263V9.904H64.0263ZM64.0263 14.728C64.0263 15.4144 64.1955 16.1136 64.7099 16.6358C65.227 17.1607 65.9243 17.336 66.6103 17.336V15.336C66.2403 15.336 66.1456 15.2433 66.1347 15.2322C66.1211 15.2184 66.0263 15.1136 66.0263 14.728H64.0263ZM66.6103 17.336C67.4565 17.336 68.2384 17.1051 68.9171 16.6235L67.7596 14.9925C67.4462 15.2149 67.0761 15.336 66.6103 15.336V17.336ZM67.3512 15.9678L67.7592 18.4878L69.7335 18.1682L69.3255 15.6482L67.3512 15.9678Z" fill="#161616"/>
</svg>
