<svg width="250" height="250" viewBox="0 0 250 250" fill="none" xmlns="http://www.w3.org/2000/svg">
<rect width="250" height="250" rx="125" fill="white"/>
<path d="M94.9922 113V109H103.692V93.6H112.192V109H124.292V113H112.192V146.2C112.192 147 112.226 147.933 112.292 149C112.359 150 112.559 150.967 112.892 151.9C113.226 152.767 113.726 153.5 114.392 154.1C115.126 154.7 116.126 155 117.392 155C118.992 155 120.326 154.4 121.392 153.2C122.459 152 123.326 150.7 123.992 149.3L128.692 154.1C125.426 157.367 121.726 159 117.592 159C115.859 159 114.159 158.7 112.492 158.1C110.826 157.5 109.326 156.6 107.992 155.4C106.726 154.133 105.692 152.533 104.892 150.6C104.092 148.667 103.692 146.4 103.692 143.8V113H94.9922ZM147.992 89H139.492V159H147.992V89Z" fill="#FF0000"/>
<path d="M91.9922 169H157.992V174H91.9922V169Z" fill="#FF0000"/>
</svg>
