<svg width="275" height="75" viewBox="0 0 275 75" fill="none" xmlns="http://www.w3.org/2000/svg">
<path d="M39.5809 54.5V22.25H52.9809V19.5H21.6309V22.25H35.0309V54.5H39.5809ZM99.8609 42.05C99.8609 43.7833 99.5609 45.45 98.9609 47.05C98.3609 48.6167 97.4943 50 96.3609 51.2C95.2609 52.4 93.9109 53.35 92.3109 54.05C90.7443 54.75 88.9776 55.1 87.0109 55.1C85.0109 55.1 83.1943 54.75 81.5609 54.05C79.9609 53.3167 78.5943 52.35 77.4609 51.15C76.3609 49.95 75.4943 48.5667 74.8609 47C74.2609 45.4 73.9609 43.75 73.9609 42.05C73.9609 40.3167 74.2609 38.6667 74.8609 37.1C75.4943 35.5 76.3609 34.1 77.4609 32.9C78.5943 31.7 79.9609 30.75 81.5609 30.05C83.1943 29.3167 85.0109 28.95 87.0109 28.95C88.9776 28.95 90.7443 29.3167 92.3109 30.05C93.9109 30.75 95.2609 31.7 96.3609 32.9C97.4943 34.1 98.3609 35.5 98.9609 37.1C99.5609 38.6667 99.8609 40.3167 99.8609 42.05ZM95.1109 42.05C95.1109 39.7167 94.8609 37.8333 94.3609 36.4C93.8609 34.9333 93.2109 33.8 92.4109 33C91.6109 32.2 90.7276 31.6667 89.7609 31.4C88.7943 31.1 87.8609 30.95 86.9609 30.95C86.0609 30.95 85.1276 31.1 84.1609 31.4C83.1943 31.6667 82.2943 32.2 81.4609 33C80.6609 33.8 79.9943 34.9333 79.4609 36.4C78.9609 37.8333 78.7109 39.7167 78.7109 42.05C78.7109 44.35 78.9609 46.2333 79.4609 47.7C79.9943 49.1333 80.6609 50.25 81.4609 51.05C82.2943 51.85 83.1943 52.4 84.1609 52.7C85.1276 52.9667 86.0609 53.1 86.9609 53.1C87.8609 53.1 88.7943 52.9667 89.7609 52.7C90.7276 52.4 91.6109 51.85 92.4109 51.05C93.2109 50.25 93.8609 49.1333 94.3609 47.7C94.8609 46.2333 95.1109 44.35 95.1109 42.05ZM150.53 28.95C152.963 28.95 154.847 29.3 156.18 30C157.513 30.6667 158.48 31.55 159.08 32.65C159.713 33.75 160.08 35.0167 160.18 36.45C160.28 37.8833 160.33 39.35 160.33 40.85V54.5H156.28V52.05C155.313 52.9833 154.08 53.7333 152.58 54.3C151.08 54.8333 149.58 55.1 148.08 55.1C146.647 55.1 145.38 54.85 144.28 54.35C143.18 53.85 142.263 53.2 141.53 52.4C140.797 51.6 140.247 50.7 139.88 49.7C139.513 48.7 139.33 47.6833 139.33 46.65C139.33 45.5833 139.53 44.5167 139.93 43.45C140.33 42.3833 140.93 41.4333 141.73 40.6C142.53 39.7333 143.513 39.0333 144.68 38.5C145.847 37.9667 147.18 37.7 148.68 37.7C150.18 37.7 151.597 38 152.93 38.6C154.297 39.1667 155.413 39.9833 156.28 41.05V38.9C156.28 36.1667 155.863 34.1333 155.03 32.8C154.23 31.4667 152.747 30.8 150.58 30.8C149.647 30.8 148.83 30.9167 148.13 31.15C147.43 31.3833 146.797 31.7167 146.23 32.15C145.697 32.55 145.197 33.0667 144.73 33.7C144.263 34.3 143.797 34.9833 143.33 35.75L140.73 33.15C141.197 32.65 141.68 32.15 142.18 31.65C142.713 31.15 143.347 30.7 144.08 30.3C144.847 29.9 145.747 29.5833 146.78 29.35C147.813 29.0833 149.063 28.95 150.53 28.95ZM156.28 44.6C156.113 44.2 155.863 43.7333 155.53 43.2C155.23 42.6667 154.83 42.15 154.33 41.65C153.83 41.15 153.23 40.7333 152.53 40.4C151.83 40.0333 150.997 39.85 150.03 39.85C149.063 39.85 148.18 40.05 147.38 40.45C146.58 40.8167 145.897 41.3167 145.33 41.95C144.797 42.55 144.38 43.2667 144.08 44.1C143.78 44.9333 143.63 45.8 143.63 46.7C143.63 47.7667 143.813 48.7 144.18 49.5C144.58 50.2667 145.08 50.9333 145.68 51.5C146.28 52.0333 146.947 52.4333 147.68 52.7C148.413 52.9667 149.113 53.1 149.78 53.1C150.413 53.1 151.047 52.9833 151.68 52.75C152.347 52.5167 152.963 52.2 153.53 51.8C154.13 51.3667 154.663 50.8667 155.13 50.3C155.597 49.7333 155.98 49.1167 156.28 48.45V44.6ZM184.282 35.2C184.282 34.3 184.049 33.4667 183.582 32.7C183.115 31.9333 182.465 31.2833 181.632 30.75C180.832 30.1833 179.882 29.75 178.782 29.45C177.715 29.1167 176.565 28.95 175.332 28.95C174.165 28.95 173.065 29.1 172.032 29.4C171.032 29.7 170.149 30.15 169.382 30.75C168.649 31.35 168.065 32.1 167.632 33C167.199 33.8667 166.982 34.8833 166.982 36.05C166.982 37.65 167.349 38.9167 168.082 39.85C168.815 40.7833 169.732 41.5333 170.832 42.1C171.932 42.6667 173.115 43.1333 174.382 43.5C175.682 43.8333 176.882 44.2167 177.982 44.65C179.082 45.05 179.999 45.5667 180.732 46.2C181.465 46.8333 181.832 47.7 181.832 48.8C181.832 49.2667 181.749 49.75 181.582 50.25C181.449 50.75 181.182 51.2167 180.782 51.65C180.382 52.05 179.832 52.4 179.132 52.7C178.432 52.9667 177.549 53.1 176.482 53.1C175.149 53.1 174.015 52.9 173.082 52.5C172.182 52.0667 171.432 51.5667 170.832 51C170.265 50.4 169.849 49.8 169.582 49.2C169.349 48.6 169.232 48.1 169.232 47.7H165.982C165.982 48.6333 166.199 49.55 166.632 50.45C167.065 51.3167 167.715 52.1 168.582 52.8C169.482 53.5 170.565 54.0667 171.832 54.5C173.132 54.9 174.632 55.1 176.332 55.1C179.399 55.1 181.699 54.4333 183.232 53.1C184.799 51.7333 185.582 49.95 185.582 47.75C185.582 46.15 185.199 44.8667 184.432 43.9C183.699 42.9333 182.765 42.1667 181.632 41.6C180.499 41 179.265 40.5167 177.932 40.15C176.632 39.7833 175.415 39.4 174.282 39C173.149 38.6 172.199 38.1167 171.432 37.55C170.699 36.9833 170.332 36.1833 170.332 35.15C170.332 34.7167 170.415 34.2667 170.582 33.8C170.749 33.3 171.032 32.85 171.432 32.45C171.832 32.0167 172.365 31.6667 173.032 31.4C173.699 31.1 174.532 30.95 175.532 30.95C176.532 30.95 177.399 31.1 178.132 31.4C178.865 31.6667 179.482 32.0167 179.982 32.45C180.482 32.85 180.849 33.3 181.082 33.8C181.315 34.3 181.432 34.7667 181.432 35.2H184.282ZM227.316 29.5V45.75C227.316 46.35 227.366 47.1833 227.466 48.25C227.6 49.2833 227.95 50.3167 228.516 51.35C229.083 52.35 229.966 53.2333 231.166 54C232.4 54.7333 234.116 55.1 236.316 55.1C237.283 55.1333 238.333 54.9333 239.466 54.5C240.633 54.1 241.8 53.3167 242.966 52.15L243.766 51.35H243.966V54.5H248.216V29.5H243.966V45C243.966 46.3 243.783 47.4167 243.416 48.35C243.05 49.2833 242.566 50.0667 241.966 50.7C241.366 51.3 240.666 51.75 239.866 52.05C239.066 52.35 238.233 52.5 237.366 52.5C235.966 52.5 234.866 52.2333 234.066 51.7C233.3 51.1333 232.716 50.4833 232.316 49.75C231.95 49.0167 231.733 48.3 231.666 47.6C231.6 46.8667 231.566 46.3333 231.566 46V29.5H227.316Z" fill="#161616"/>
<path d="M54.0225 39.5V74.5H58.2725V60.05C58.2725 59.3833 58.3225 58.5667 58.4225 57.6C58.5225 56.6333 58.7891 55.7 59.2225 54.8C59.6891 53.9 60.3725 53.1333 61.2725 52.5C62.1725 51.8333 63.4225 51.5 65.0225 51.5C66.1558 51.5 67.0558 51.7167 67.7225 52.15C68.4225 52.55 68.9558 53.1 69.3225 53.8C69.6891 54.5 69.9225 55.3167 70.0225 56.25C70.1558 57.1833 70.2225 58.15 70.2225 59.15V74.5H74.4725V58C74.4725 56.1333 74.2058 54.6167 73.6725 53.45C73.1391 52.25 72.4725 51.3167 71.6725 50.65C70.8725 49.9833 69.9891 49.5333 69.0225 49.3C68.0891 49.0667 67.1891 48.95 66.3225 48.95C65.1558 48.95 63.9225 49.1833 62.6225 49.65C61.3558 50.0833 60.1558 50.9333 59.0225 52.2L58.4725 52.9H58.2725V39.5H54.0225ZM104.22 74.5V60.25C104.22 59.65 104.27 58.8667 104.37 57.9C104.47 56.9 104.72 55.9333 105.12 55C105.553 54.0333 106.203 53.2167 107.07 52.55C107.936 51.85 109.153 51.5 110.72 51.5C111.853 51.5 112.72 51.75 113.32 52.25C113.953 52.75 114.42 53.3667 114.72 54.1C115.02 54.8333 115.186 55.6 115.22 56.4C115.286 57.2 115.32 57.9 115.32 58.5V74.5H119.57V60.25C119.57 59.5167 119.636 58.65 119.77 57.65C119.903 56.6167 120.186 55.65 120.62 54.75C121.053 53.85 121.67 53.0833 122.47 52.45C123.303 51.8167 124.42 51.5 125.82 51.5C126.853 51.5 127.686 51.65 128.32 51.95C128.953 52.25 129.436 52.7 129.77 53.3C130.136 53.9 130.37 54.6333 130.47 55.5C130.603 56.3667 130.67 57.3667 130.67 58.5V74.5H134.92V57.05C134.92 56.2833 134.836 55.4333 134.67 54.5C134.503 53.5333 134.136 52.65 133.57 51.85C133.036 51.0167 132.236 50.3333 131.17 49.8C130.136 49.2333 128.753 48.95 127.02 48.95C126.52 48.95 125.936 49 125.27 49.1C124.603 49.2 123.903 49.4167 123.17 49.75C122.436 50.0833 121.72 50.5667 121.02 51.2C120.353 51.8333 119.77 52.6667 119.27 53.7H118.92C118.72 53.1667 118.436 52.6333 118.07 52.1C117.703 51.5333 117.236 51.0167 116.67 50.55C116.103 50.0833 115.42 49.7 114.62 49.4C113.853 49.1 112.92 48.95 111.82 48.95C111.32 48.95 110.72 49.0167 110.02 49.15C109.32 49.25 108.62 49.4667 107.92 49.8C107.22 50.1333 106.553 50.6 105.92 51.2C105.32 51.8 104.82 52.5833 104.42 53.55H104.22V49.5H99.9697V74.5H104.22ZM197.38 74.5V39.5H201.93V71.75H219.98V74.5H197.38Z" fill="#161616"/>
</svg>
