<svg width="99" height="26" viewBox="0 0 99 26" fill="none" xmlns="http://www.w3.org/2000/svg">
<path d="M13.2691 8.392L14.0522 7.77012L13.2691 8.392ZM13.2451 17.584L14.0271 18.2073V18.2073L13.2451 17.584ZM7.41313 18.64L6.86347 19.4755L6.87346 19.4819L7.41313 18.64ZM5.99713 16.984L6.89961 16.5533L4.99713 16.984H5.99713ZM5.99713 24.04V25.04H6.99713V24.04H5.99713ZM1.91713 24.04H0.917126V25.04H1.91713V24.04ZM1.91713 7V6H0.917126V7H1.91713ZM5.49313 7L6.49201 6.95288L6.44707 6H5.49313V7ZM5.61312 9.544L4.61423 9.59112L6.54281 9.91236L5.61312 9.544ZM7.14913 7.528L7.73393 8.33918L7.7373 8.33673L7.14913 7.528ZM9.86113 15.448L9.06403 14.8441L9.05813 14.8519L9.05239 14.8598L9.86113 15.448ZM9.86113 10.552L9.05239 11.1402L9.05813 11.1481L9.06403 11.1559L9.86113 10.552ZM6.57313 10.552L5.77603 9.94814L5.77013 9.95593L5.76439 9.96383L6.57313 10.552ZM6.57313 15.424L7.39009 14.8473L6.57313 15.424ZM9.62113 7.76C10.9286 7.76 11.8378 8.19755 12.486 9.01388L14.0522 7.77012C12.9725 6.41044 11.4497 5.76 9.62113 5.76V7.76ZM12.486 9.01388C13.1624 9.86564 13.5651 11.1361 13.5651 12.952H15.5651C15.5651 10.8639 15.1038 9.09435 14.0522 7.77012L12.486 9.01388ZM13.5651 12.952C13.5651 14.7996 13.1546 16.0933 12.4632 16.9607L14.0271 18.2073C15.0957 16.8667 15.5651 15.0724 15.5651 12.952H13.5651ZM12.4632 16.9607C11.7912 17.8037 10.8834 18.24 9.62113 18.24V20.24C11.4309 20.24 12.939 19.5723 14.0271 18.2073L12.4632 16.9607ZM9.62113 18.24C8.93616 18.24 8.39348 18.0806 7.95279 17.7981L6.87346 19.4819C7.68077 19.9994 8.61009 20.24 9.62113 20.24V18.24ZM7.96274 17.8046C7.51804 17.512 7.16294 17.105 6.89961 16.5533L5.09464 17.4147C5.50331 18.271 6.09221 18.968 6.86351 19.4754L7.96274 17.8046ZM4.99713 16.984V24.04H6.99713V16.984H4.99713ZM5.99713 23.04H1.91713V25.04H5.99713V23.04ZM2.91713 24.04V7H0.917126V24.04H2.91713ZM1.91713 8H5.49313V6H1.91713V8ZM4.49424 7.04712L4.61423 9.59112L6.61201 9.49688L6.49201 6.95288L4.49424 7.04712ZM6.54281 9.91236C6.81401 9.22789 7.21256 8.71504 7.73393 8.33918L6.56432 6.71682C5.70969 7.33295 5.08424 8.16411 4.68344 9.17563L6.54281 9.91236ZM7.7373 8.33673C8.25574 7.95968 8.86963 7.76 9.62113 7.76V5.76C8.48462 5.76 7.45051 6.07232 6.56095 6.71926L7.7373 8.33673ZM8.20513 17.24C9.20691 17.24 10.0763 16.8523 10.6699 16.0362L9.05239 14.8598C8.87794 15.0997 8.64334 15.24 8.20513 15.24V17.24ZM10.6582 16.0519C11.2521 15.2679 11.4611 14.1896 11.4611 13H9.46113C9.46113 14.0184 9.27015 14.5721 9.06403 14.8441L10.6582 16.0519ZM11.4611 13C11.4611 11.8104 11.2521 10.7321 10.6582 9.94814L9.06403 11.1559C9.27015 11.4279 9.46113 11.9816 9.46113 13H11.4611ZM10.6699 9.96383C10.0763 9.1477 9.20691 8.76 8.20513 8.76V10.76C8.64334 10.76 8.87794 10.9003 9.05239 11.1402L10.6699 9.96383ZM8.20513 8.76C7.21822 8.76 6.37346 9.15953 5.77603 9.94814L7.37022 11.1559C7.57279 10.8885 7.81603 10.76 8.20513 10.76V8.76ZM5.76439 9.96383C5.20343 10.7351 4.99713 11.7564 4.99713 12.88H6.99713C6.99713 11.9556 7.17482 11.4249 7.38186 11.1402L5.76439 9.96383ZM4.99713 12.88V13.12H6.99713V12.88H4.99713ZM4.99713 13.12C4.99713 14.2228 5.20774 15.2238 5.75616 16.0007L7.39009 14.8473C7.17052 14.5362 6.99713 14.0012 6.99713 13.12H4.99713ZM5.75616 16.0007C6.33985 16.8276 7.19816 17.24 8.20513 17.24V15.24C7.80409 15.24 7.5744 15.1084 7.39009 14.8473L5.75616 16.0007ZM25.6994 7.024L26.6917 7.14804L26.7759 6.47477L26.1814 6.14779L25.6994 7.024ZM25.2674 10.48L24.7529 11.3375L26.0693 12.1273L26.2597 10.604L25.2674 10.48ZM24.6194 10.24L24.3373 11.1994L24.3636 11.2071L24.3904 11.2134L24.6194 10.24ZM21.8354 10.864L22.5194 11.5935L22.5254 11.5879L22.5312 11.5822L21.8354 10.864ZM21.0674 19V20H22.0674V19H21.0674ZM16.9874 19H15.9874V20H16.9874V19ZM16.9874 7V6H15.9874V7H16.9874ZM20.5874 7L21.5853 6.93532L21.5247 6H20.5874V7ZM20.7554 9.592L19.7575 9.65668L21.709 9.89313L20.7554 9.592ZM22.0994 7.504L22.7191 8.28889L22.7217 8.28682L22.0994 7.504ZM24.4034 7.76C24.8552 7.76 25.1 7.8356 25.2175 7.90022L26.1814 6.14779C25.6588 5.8604 25.0397 5.76 24.4034 5.76V7.76ZM24.7072 6.89997L24.2752 10.356L26.2597 10.604L26.6917 7.14804L24.7072 6.89997ZM25.7819 9.62251C25.501 9.45394 25.1762 9.34369 24.8485 9.26658L24.3904 11.2134C24.6067 11.2643 24.7139 11.3141 24.7529 11.3375L25.7819 9.62251ZM24.9016 9.28063C24.5316 9.17181 24.1481 9.12 23.7554 9.12V11.12C23.9708 11.12 24.1633 11.1482 24.3373 11.1994L24.9016 9.28063ZM23.7554 9.12C22.7498 9.12 21.8535 9.45424 21.1396 10.1458L22.5312 11.5822C22.8414 11.2818 23.2251 11.12 23.7554 11.12V9.12ZM21.1515 10.1345C20.382 10.8559 20.0674 11.8508 20.0674 12.952H22.0674C22.0674 12.2292 22.2649 11.8321 22.5194 11.5935L21.1515 10.1345ZM20.0674 12.952V19H22.0674V12.952H20.0674ZM21.0674 18H16.9874V20H21.0674V18ZM17.9874 19V7H15.9874V19H17.9874ZM16.9874 8H20.5874V6H16.9874V8ZM19.5895 7.06468L19.7575 9.65668L21.7533 9.52732L21.5853 6.93532L19.5895 7.06468ZM21.709 9.89313C21.951 9.12702 22.3018 8.6183 22.7191 8.28888L21.4798 6.71912C20.6811 7.3497 20.1359 8.23298 19.8019 9.29087L21.709 9.89313ZM22.7217 8.28682C23.1437 7.95136 23.6832 7.76 24.4034 7.76V5.76C23.2997 5.76 22.3032 6.06463 21.4772 6.72118L22.7217 8.28682ZM37.5753 8.416L36.8682 9.12311L36.8733 9.12823L36.8785 9.13328L37.5753 8.416ZM37.5753 17.608L38.2772 18.3202L38.2773 18.3202L37.5753 17.608ZM28.2393 17.608L27.5322 18.3151L27.5373 18.3202L27.5425 18.3253L28.2393 17.608ZM28.2393 8.416L28.9412 9.12825L28.9413 9.12818L28.2393 8.416ZM31.2153 10.456L30.3949 9.88421L31.2153 10.456ZM31.2153 15.544L30.3949 16.1158H30.3949L31.2153 15.544ZM34.6233 15.544L33.8029 14.9722V14.9722L34.6233 15.544ZM34.6233 10.456L33.8029 11.0278L34.6233 10.456ZM32.9193 7.76C34.7322 7.76 36.0005 8.25545 36.8682 9.12311L38.2824 7.70889C36.9421 6.36855 35.1065 5.76 32.9193 5.76V7.76ZM36.8785 9.13328C37.7571 9.98675 38.2553 11.2278 38.2553 13H40.2553C40.2553 10.8362 39.6335 9.02125 38.2721 7.69872L36.8785 9.13328ZM38.2553 13C38.2553 14.7715 37.7573 16.0245 36.8733 16.8958L38.2773 18.3202C39.6333 16.9835 40.2553 15.1645 40.2553 13H38.2553ZM36.8734 16.8958C36.0064 17.7502 34.7361 18.24 32.9193 18.24V20.24C35.1025 20.24 36.9363 19.6418 38.2772 18.3202L36.8734 16.8958ZM32.9193 18.24C31.1033 18.24 29.8211 17.7505 28.9361 16.8907L27.5425 18.3253C28.8975 19.6415 30.7353 20.24 32.9193 20.24V18.24ZM28.9464 16.9009C28.0758 16.0303 27.5833 14.7756 27.5833 13H25.5833C25.5833 15.1604 26.1948 16.9777 27.5322 18.3151L28.9464 16.9009ZM27.5833 13C27.5833 11.2237 28.076 9.98092 28.9412 9.12825L27.5374 7.70375C26.1946 9.02708 25.5833 10.8403 25.5833 13H27.5833ZM28.9413 9.12818C29.8269 8.2552 31.1072 7.76 32.9193 7.76V5.76C30.7314 5.76 28.8917 6.3688 27.5373 7.70382L28.9413 9.12818ZM32.9193 8.664C31.8964 8.664 30.9877 9.0337 30.3949 9.88421L32.0357 11.0278C32.1789 10.8223 32.4062 10.664 32.9193 10.664V8.664ZM30.3949 9.88421C29.8481 10.6688 29.6633 11.7724 29.6633 13H31.6633C31.6633 11.8916 31.8465 11.2992 32.0357 11.0278L30.3949 9.88421ZM29.6633 13C29.6633 14.2276 29.8481 15.3312 30.3949 16.1158L32.0357 14.9722C31.8465 14.7008 31.6633 14.1084 31.6633 13H29.6633ZM30.3949 16.1158C30.9877 16.9663 31.8964 17.336 32.9193 17.336V15.336C32.4062 15.336 32.1789 15.1777 32.0357 14.9722L30.3949 16.1158ZM32.9193 17.336C33.9422 17.336 34.8509 16.9663 35.4437 16.1158L33.8029 14.9722C33.6597 15.1777 33.4324 15.336 32.9193 15.336V17.336ZM35.4437 16.1158C35.9905 15.3312 36.1753 14.2276 36.1753 13H34.1753C34.1753 14.1084 33.9921 14.7008 33.8029 14.9722L35.4437 16.1158ZM36.1753 13C36.1753 11.7724 35.9905 10.6688 35.4437 9.88421L33.8029 11.0278C33.9921 11.2992 34.1753 11.8916 34.1753 13H36.1753ZM35.4437 9.88421C34.8509 9.0337 33.9422 8.664 32.9193 8.664V10.664C33.4324 10.664 33.6597 10.8223 33.8029 11.0278L35.4437 9.88421ZM45.4128 2.176L44.7726 2.94422L44.7803 2.95062L44.7881 2.95687L45.4128 2.176ZM45.4368 5.128L46.077 5.89622L45.4368 5.128ZM41.8128 5.128L41.1566 5.8826L41.1646 5.8895L41.1726 5.89622L41.8128 5.128ZM41.8128 2.176L41.1726 1.40778L41.1646 1.4145L41.1566 1.42139L41.8128 2.176ZM44.4768 23.08L43.8161 22.3292L43.8078 22.3367L44.4768 23.08ZM37.8768 23.392L36.8998 23.1788L36.7486 23.8719L37.3527 24.2437L37.8768 23.392ZM38.4528 20.752L39.109 19.9974L37.8355 18.89L37.4758 20.5388L38.4528 20.752ZM41.1648 20.776L40.4577 20.0689L40.4381 20.0885L40.4196 20.1092L41.1648 20.776ZM41.5968 7V6H40.5968V7H41.5968ZM45.6768 7H46.6768V6H45.6768V7ZM43.6128 2.696C44.3325 2.696 44.6514 2.84322 44.7726 2.94422L46.053 1.40778C45.4062 0.86878 44.5251 0.695999 43.6128 0.695999V2.696ZM44.7881 2.95687C44.8812 3.03133 45.0128 3.19362 45.0128 3.664H47.0128C47.0128 2.79037 46.7444 1.96066 46.0375 1.39513L44.7881 2.95687ZM45.0128 3.664C45.0128 4.12247 44.886 4.28528 44.7966 4.35978L46.077 5.89622C46.7556 5.33072 47.0128 4.51753 47.0128 3.664H45.0128ZM44.7966 4.35978C44.6781 4.45854 44.3543 4.608 43.6128 4.608V6.608C44.5354 6.608 45.4275 6.43746 46.077 5.89622L44.7966 4.35978ZM43.6128 4.608C42.8931 4.608 42.5742 4.46078 42.453 4.35978L41.1726 5.89622C41.8194 6.43522 42.7005 6.608 43.6128 6.608V4.608ZM42.469 4.37339C42.3879 4.30292 42.2608 4.1358 42.2608 3.664H40.2608C40.2608 4.50419 40.5017 5.31308 41.1566 5.8826L42.469 4.37339ZM42.2608 3.664C42.2608 3.1672 42.3929 2.99675 42.469 2.9306L41.1566 1.42139C40.4967 1.99525 40.2608 2.8168 40.2608 3.664H42.2608ZM42.453 2.94422C42.5742 2.84322 42.8931 2.696 43.6128 2.696V0.695999C42.7005 0.695999 41.8194 0.86878 41.1726 1.40778L42.453 2.94422ZM44.6768 19.672C44.6768 21.0903 44.3151 21.8903 43.8162 22.3293L45.1374 23.8307C46.2386 22.8617 46.6768 21.3897 46.6768 19.672H44.6768ZM43.8078 22.3367C43.2533 22.8358 42.3759 23.16 41.0208 23.16V25.16C42.6737 25.16 44.1003 24.7642 45.1458 23.8233L43.8078 22.3367ZM41.0208 23.16C39.8884 23.16 39.0353 22.9307 38.4009 22.5403L37.3527 24.2437C38.3824 24.8773 39.6252 25.16 41.0208 25.16V23.16ZM38.8538 23.6052L39.4298 20.9652L37.4758 20.5388L36.8998 23.1788L38.8538 23.6052ZM37.7966 21.5066C38.3972 22.0288 39.1603 22.232 39.9648 22.232V20.232C39.4893 20.232 39.2445 20.1152 39.109 19.9974L37.7966 21.5066ZM39.9648 22.232C40.6883 22.232 41.3961 22.0172 41.9101 21.4428L40.4196 20.1092C40.3895 20.1428 40.2973 20.232 39.9648 20.232V22.232ZM41.8719 21.4831C42.4414 20.9136 42.5968 20.0934 42.5968 19.312H40.5968C40.5968 19.9066 40.4642 20.0624 40.4577 20.0689L41.8719 21.4831ZM42.5968 19.312V7H40.5968V19.312H42.5968ZM41.5968 8H45.6768V6H41.5968V8ZM44.6768 7V19.672H46.6768V7H44.6768ZM60.1257 14.176V15.176H60.924L61.1009 14.3976L60.1257 14.176ZM51.9417 14.176V13.176H50.7572L50.9559 14.3438L51.9417 14.176ZM52.7578 15.832L52.1118 16.5954L52.1189 16.6014L52.1261 16.6072L52.7578 15.832ZM55.9017 16.024L55.3979 15.1602L55.3898 15.1649L55.3818 15.1698L55.9017 16.024ZM56.6698 15.04L56.9735 14.0873L56.001 13.7772L55.711 14.7559L56.6698 15.04ZM59.9818 16.096L60.9319 16.4078L61.2463 15.4496L60.2855 15.1433L59.9818 16.096ZM58.0137 18.448L58.4957 19.3242L58.5006 19.3215L58.0137 18.448ZM49.6377 17.608L48.9358 18.3203L48.941 18.3253L49.6377 17.608ZM58.6858 8.368L57.9626 9.05873L57.9679 9.06425L57.9733 9.06969L58.6858 8.368ZM51.9177 11.968L50.9293 11.8167L50.753 12.968H51.9177V11.968ZM56.4297 11.968V12.968H57.5597L57.4223 11.8465L56.4297 11.968ZM59.2458 12.832C59.2458 13.3349 59.208 13.7018 59.1506 13.9544L61.1009 14.3976C61.2035 13.9462 61.2458 13.4171 61.2458 12.832H59.2458ZM60.1257 13.176H51.9417V15.176H60.1257V13.176ZM50.9559 14.3438C51.1078 15.2362 51.4556 16.0401 52.1118 16.5954L53.4037 15.0686C53.2279 14.9199 53.0317 14.6198 52.9276 14.0082L50.9559 14.3438ZM52.1261 16.6072C52.7792 17.1394 53.5895 17.36 54.4618 17.36V15.36C53.926 15.36 53.6003 15.2286 53.3894 15.0568L52.1261 16.6072ZM54.4618 17.36C55.1712 17.36 55.8489 17.2268 56.4217 16.8782L55.3818 15.1698C55.2186 15.2692 54.9363 15.36 54.4618 15.36V17.36ZM56.4056 16.8878C57.0128 16.5336 57.4293 15.9965 57.6285 15.3241L55.711 14.7559C55.6542 14.9475 55.5587 15.0664 55.3979 15.1602L56.4056 16.8878ZM56.366 15.9927L59.678 17.0487L60.2855 15.1433L56.9735 14.0873L56.366 15.9927ZM59.0316 15.7842C58.7771 16.5599 58.2923 17.1479 57.5269 17.5745L58.5006 19.3215C59.6872 18.6601 60.5144 17.6801 60.9319 16.4078L59.0316 15.7842ZM57.5318 17.5718C56.7557 17.9987 55.7481 18.24 54.4618 18.24V20.24C55.9914 20.24 57.3518 19.9533 58.4957 19.3242L57.5318 17.5718ZM54.4618 18.24C52.5346 18.24 51.2113 17.7424 50.3345 16.8907L48.941 18.3253C50.3042 19.6496 52.197 20.24 54.4618 20.24V18.24ZM50.3397 16.8958C49.476 16.0446 48.9818 14.795 48.9818 13H46.9818C46.9818 15.173 47.5915 16.9954 48.9358 18.3202L50.3397 16.8958ZM48.9818 13C48.9818 11.201 49.4704 9.94958 50.3209 9.09911L48.9066 7.68489C47.5811 9.01042 46.9818 10.831 46.9818 13H48.9818ZM50.3209 9.09911C51.1699 8.25009 52.4281 7.76 54.2458 7.76V5.76C52.0634 5.76 50.2336 6.35791 48.9066 7.68489L50.3209 9.09911ZM54.2458 7.76C55.9962 7.76 57.1803 8.23972 57.9626 9.05873L59.4089 7.67727C58.1432 6.35228 56.3673 5.76 54.2458 5.76V7.76ZM57.9733 9.06969C58.7792 9.88802 59.2458 11.0938 59.2458 12.832H61.2458C61.2458 10.7302 60.6723 8.95998 59.3982 7.66631L57.9733 9.06969ZM54.2217 8.616C53.3574 8.616 52.5653 8.88571 51.9594 9.50422C51.3767 10.0991 51.0674 10.9141 50.9293 11.8167L52.9062 12.1193C53.0081 11.4539 53.2029 11.0929 53.3881 10.9038C53.5502 10.7383 53.7901 10.616 54.2217 10.616V8.616ZM51.9177 12.968H56.4297V10.968H51.9177V12.968ZM57.4223 11.8465C57.3121 10.9461 57.0301 10.1238 56.4628 9.51956C55.87 8.88813 55.0809 8.616 54.2217 8.616V10.616C54.6426 10.616 54.8615 10.7359 55.0047 10.8884C55.1734 11.0682 55.3554 11.4219 55.4372 12.0895L57.4223 11.8465ZM72.3425 7.792L71.7403 8.59031V8.59032L72.3425 7.792ZM74.0465 10.48L74.3591 11.4299L75.2032 11.1521L75.0265 10.2812L74.0465 10.48ZM70.2545 11.728L69.2612 11.8435L69.4028 13.0611L70.5671 12.6779L70.2545 11.728ZM70.3985 14.392L70.7035 13.4396L69.5819 13.0804L69.4093 14.2455L70.3985 14.392ZM74.0705 15.568L75.0577 15.7277L75.1951 14.8781L74.3755 14.6156L74.0705 15.568ZM72.3185 18.232L72.8856 19.0557L72.8884 19.0537L72.3185 18.232ZM63.6305 17.608L64.3273 16.8907L63.6305 17.608ZM63.6065 8.416L64.3084 9.12825L64.3085 9.12818L63.6065 8.416ZM68.2625 7.76C69.971 7.76 71.0768 8.08981 71.7403 8.59031L72.9447 6.99368C71.7842 6.11819 70.17 5.76 68.2625 5.76V7.76ZM71.7403 8.59032C72.4604 9.13359 72.8918 9.81778 73.0665 10.6788L75.0265 10.2812C74.7532 8.93422 74.0486 7.82641 72.9447 6.99368L71.7403 8.59032ZM73.7339 9.53012L69.9419 10.7781L70.5671 12.6779L74.3591 11.4299L73.7339 9.53012ZM71.2478 11.6125C71.1552 10.8162 70.9164 10.0702 70.4175 9.51295C69.8886 8.92225 69.1765 8.664 68.4065 8.664V10.664C68.7085 10.664 68.8404 10.7497 68.9275 10.847C69.0446 10.9778 69.1938 11.2638 69.2612 11.8435L71.2478 11.6125ZM68.4065 8.664C67.3448 8.664 66.4194 9.0619 65.8061 9.93537C65.2381 10.7443 65.0305 11.8336 65.0305 13.048H67.0305C67.0305 12.0064 67.2189 11.4037 67.4429 11.0846C67.6216 10.8301 67.8842 10.664 68.4065 10.664V8.664ZM65.0305 13.048C65.0305 14.2345 65.2395 15.3047 65.814 16.0997C66.432 16.9549 67.3562 17.336 68.4065 17.336V15.336C67.8728 15.336 67.609 15.1691 67.435 14.9283C67.2175 14.6273 67.0305 14.0535 67.0305 13.048H65.0305ZM68.4065 17.336C69.1734 17.336 69.896 17.1111 70.4549 16.5657C70.9965 16.0372 71.2725 15.3161 71.3877 14.5385L69.4093 14.2455C69.3325 14.7639 69.1805 15.0148 69.0581 15.1343C68.953 15.2369 68.7756 15.336 68.4065 15.336V17.336ZM70.0935 15.3444L73.7655 16.5204L74.3755 14.6156L70.7035 13.4396L70.0935 15.3444ZM73.0833 15.4083C72.9551 16.2011 72.5409 16.8608 71.7486 17.4103L72.8884 19.0537C74.0801 18.2272 74.8339 17.1109 75.0577 15.7277L73.0833 15.4083ZM71.7514 17.4084C70.993 17.9306 69.9158 18.24 68.4305 18.24V20.24C70.1772 20.24 71.692 19.8774 72.8856 19.0556L71.7514 17.4084ZM68.4305 18.24C66.5218 18.24 65.2054 17.7437 64.3273 16.8907L62.9337 18.3253C64.2956 19.6483 66.1792 20.24 68.4305 20.24V18.24ZM64.3273 16.8907C63.4503 16.0387 62.9505 14.7909 62.9505 13H60.9505C60.9505 15.1771 61.5707 17.0012 62.9337 18.3253L64.3273 16.8907ZM62.9505 13C62.9505 11.2237 63.4432 9.98092 64.3084 9.12825L62.9046 7.70375C61.5618 9.02708 60.9505 10.8403 60.9505 13H62.9505ZM64.3085 9.12818C65.1956 8.25376 66.469 7.76 68.2625 7.76V5.76C66.088 5.76 64.2574 6.37024 62.9045 7.70382L64.3085 9.12818ZM84.9494 18.328L85.5117 19.1549L86.0384 18.7968L85.9366 18.1682L84.9494 18.328ZM83.4134 19L83.6679 19.9671L83.6764 19.9648L83.6849 19.9624L83.4134 19ZM78.3014 18.328L77.6727 19.1056L78.3014 18.328ZM77.1494 15.4H76.1494L76.1495 15.4119L77.1494 15.4ZM77.1494 9.904H78.1494V8.904H77.1494V9.904ZM75.0854 9.904H74.0854V10.904H75.0854V9.904ZM75.0854 7V6H74.0854V7H75.0854ZM77.1494 7V8H78.1494V7H77.1494ZM77.1494 4.312L76.883 3.34816L76.1494 3.55095V4.312H77.1494ZM81.2294 3.184H82.2294V1.87001L80.963 2.22016L81.2294 3.184ZM81.2294 7H80.2294V8H81.2294V7ZM84.8294 7H85.8294V6H84.8294V7ZM84.8294 9.904V10.904H85.8294V9.904H84.8294ZM81.2294 9.904V8.904H80.2294V9.904H81.2294ZM84.5414 15.808L85.5286 15.6482L85.272 14.0633L83.9627 14.9925L84.5414 15.808ZM84.3871 17.5011C84.1006 17.6959 83.6953 17.8815 83.142 18.0376L83.6849 19.9624C84.3796 19.7665 84.9982 19.5041 85.5117 19.1549L84.3871 17.5011ZM83.1589 18.0329C82.6334 18.1712 82.1029 18.24 81.5654 18.24V20.24C82.276 20.24 82.9775 20.1488 83.6679 19.9671L83.1589 18.0329ZM81.5654 18.24C80.2658 18.24 79.4371 17.9602 78.9302 17.5504L77.6727 19.1056C78.6698 19.9118 80.0171 20.24 81.5654 20.24V18.24ZM78.9302 17.5504C78.4902 17.1947 78.1633 16.5562 78.1494 15.3881L76.1495 15.4119C76.1676 16.9318 76.6087 18.2453 77.6727 19.1056L78.9302 17.5504ZM78.1494 15.4V9.904H76.1494V15.4H78.1494ZM77.1494 8.904H75.0854V10.904H77.1494V8.904ZM76.0854 9.904V7H74.0854V9.904H76.0854ZM75.0854 8H77.1494V6H75.0854V8ZM78.1494 7V4.312H76.1494V7H78.1494ZM77.4159 5.27584L81.4959 4.14784L80.963 2.22016L76.883 3.34816L77.4159 5.27584ZM80.2294 3.184V7H82.2294V3.184H80.2294ZM81.2294 8H84.8294V6H81.2294V8ZM83.8294 7V9.904H85.8294V7H83.8294ZM84.8294 8.904H81.2294V10.904H84.8294V8.904ZM80.2294 9.904V14.728H82.2294V9.904H80.2294ZM80.2294 14.728C80.2294 15.4144 80.3987 16.1136 80.913 16.6358C81.4301 17.1607 82.1275 17.336 82.8134 17.336V15.336C82.4434 15.336 82.3487 15.2433 82.3378 15.2322C82.3242 15.2184 82.2294 15.1136 82.2294 14.728H80.2294ZM82.8134 17.336C83.6596 17.336 84.4416 17.1051 85.1202 16.6235L83.9627 14.9925C83.6493 15.2149 83.2792 15.336 82.8134 15.336V17.336ZM83.5543 15.9678L83.9623 18.4878L85.9366 18.1682L85.5286 15.6482L83.5543 15.9678ZM85.7791 17.128L85.042 16.4523L84.4566 17.0908L85.0052 17.7612L85.7791 17.128ZM87.8911 14.824L88.7465 14.306L88.0554 13.1649L87.154 14.1483L87.8911 14.824ZM92.7631 16.312L93.1735 17.2239L93.1921 17.2155L93.2103 17.2064L92.7631 16.312ZM92.7391 15.112L92.2572 15.9882L92.2828 16.0023L92.3092 16.0149L92.7391 15.112ZM91.0591 14.608L91.2552 13.6274L91.2519 13.6268L91.0591 14.608ZM87.2191 13.168L86.5904 13.9457L86.5984 13.952L87.2191 13.168ZM86.7391 8.8L87.5543 9.37921L86.7391 8.8ZM88.6831 7.336L89.075 8.25606L89.0831 8.25254L88.6831 7.336ZM95.2351 7.336L94.829 8.24981L94.8391 8.25431L94.8493 8.25858L95.2351 7.336ZM97.3711 9.016L98.0701 9.73119L98.6867 9.12852L98.1814 8.42988L97.3711 9.016ZM95.2591 11.08L94.4344 11.6455L95.1072 12.6267L95.9581 11.7952L95.2591 11.08ZM90.6511 9.736L91.133 10.6122V10.6122L90.6511 9.736ZM90.6511 11.008L90.1692 11.8842L90.1948 11.8983L90.2212 11.9109L90.6511 11.008ZM92.3791 11.488L92.1867 12.4693L92.1978 12.4715L92.2089 12.4734L92.3791 11.488ZM96.1711 12.856L95.5504 13.64L95.5594 13.6471L95.5685 13.654L96.1711 12.856ZM95.8831 18.16L96.4768 18.9648L96.4852 18.9584L95.8831 18.16ZM91.6351 18.24C89.0266 18.24 87.4344 17.5719 86.5531 16.4948L85.0052 17.7612C86.4279 19.5001 88.7397 20.24 91.6351 20.24V18.24ZM86.5163 17.8037L88.6283 15.4997L87.154 14.1483L85.042 16.4523L86.5163 17.8037ZM87.0358 15.342C87.9541 16.8583 89.5199 17.528 91.4431 17.528V15.528C90.0064 15.528 89.2042 15.0617 88.7465 14.306L87.0358 15.342ZM91.4431 17.528C92.0698 17.528 92.6703 17.4504 93.1735 17.2239L92.3528 15.4001C92.216 15.4616 91.9364 15.528 91.4431 15.528V17.528ZM93.2103 17.2064C93.7144 16.9544 94.2431 16.4693 94.2431 15.688H92.2431C92.2431 15.6459 92.25 15.5964 92.2678 15.545C92.2854 15.4939 92.3092 15.454 92.3305 15.4263C92.3698 15.3752 92.3872 15.3819 92.3159 15.4176L93.2103 17.2064ZM94.2431 15.688C94.2431 14.864 93.6054 14.4169 93.1691 14.2091L92.3092 16.0149C92.4059 16.0609 92.4016 16.0769 92.3645 16.0345C92.3428 16.0097 92.3106 15.9654 92.2844 15.9005C92.2574 15.8336 92.2431 15.7605 92.2431 15.688H94.2431ZM93.221 14.2358C92.7556 13.9798 92.0629 13.789 91.2552 13.6274L90.863 15.5886C91.6553 15.747 92.0827 15.8922 92.2572 15.9882L93.221 14.2358ZM91.2519 13.6268C89.5032 13.2833 88.4163 12.8403 87.8398 12.384L86.5984 13.952C87.558 14.7117 89.0311 15.2287 90.8664 15.5892L91.2519 13.6268ZM87.8478 12.3904C87.3419 11.9813 87.0911 11.4648 87.0911 10.744H85.0911C85.0911 12.0392 85.5923 13.1387 86.5904 13.9456L87.8478 12.3904ZM87.0911 10.744C87.0911 10.2812 87.2319 9.83298 87.5543 9.37921L85.9239 8.22079C85.3824 8.98302 85.0911 9.83078 85.0911 10.744H87.0911ZM87.5543 9.37921C87.8549 8.95617 88.3372 8.57026 89.075 8.25602L88.2913 6.41598C87.301 6.83774 86.4874 7.42783 85.9239 8.22079L87.5543 9.37921ZM89.0831 8.25254C89.8052 7.93744 90.7253 7.76 91.8751 7.76V5.76C90.5289 5.76 89.3211 5.96656 88.2832 6.41946L89.0831 8.25254ZM91.8751 7.76C93.1698 7.76 94.1373 7.94239 94.829 8.24981L95.6413 6.42219C94.605 5.96161 93.3325 5.76 91.8751 5.76V7.76ZM94.8493 8.25858C95.5645 8.55767 96.1278 9.00346 96.5609 9.60212L98.1814 8.42988C97.5264 7.52454 96.6657 6.85033 95.6209 6.41342L94.8493 8.25858ZM96.6722 8.30081L94.5602 10.3648L95.9581 11.7952L98.0701 9.73119L96.6722 8.30081ZM96.0839 10.5145C95.6172 9.83396 95.0348 9.29918 94.3274 8.95619L93.4548 10.7558C93.8034 10.9248 94.133 11.206 94.4344 11.6455L96.0839 10.5145ZM94.3274 8.95619C93.6333 8.61967 92.8448 8.472 91.9951 8.472V10.472C92.6174 10.472 93.0929 10.5803 93.4548 10.7558L94.3274 8.95619ZM91.9951 8.472C91.3385 8.472 90.6984 8.56874 90.1692 8.85978L91.133 10.6122C91.2439 10.5513 91.4997 10.472 91.9951 10.472V8.472ZM90.1692 8.85978C89.6823 9.12759 89.1711 9.6172 89.1711 10.384H91.1711C91.1711 10.4262 91.1642 10.4733 91.1482 10.5205C91.1324 10.5673 91.1116 10.6024 91.0947 10.6252C91.064 10.6666 91.0565 10.6543 91.133 10.6122L90.1692 8.85978ZM89.1711 10.384C89.1711 11.1574 89.7114 11.6324 90.1692 11.8842L91.133 10.1318C91.0497 10.0859 91.0536 10.0711 91.0837 10.1103C91.1009 10.1326 91.1243 10.1697 91.1429 10.2217C91.1618 10.2746 91.1711 10.3304 91.1711 10.384H89.1711ZM90.2212 11.9109C90.68 12.1293 91.364 12.308 92.1867 12.4693L92.5715 10.5067C91.7622 10.348 91.2943 10.2067 91.0811 10.1051L90.2212 11.9109ZM92.2089 12.4734C93.9193 12.7688 94.9817 13.1898 95.5504 13.64L96.7918 12.072C95.8246 11.3062 94.359 10.8152 92.5493 10.5026L92.2089 12.4734ZM95.5685 13.654C96.0856 14.0445 96.3471 14.5562 96.3471 15.304H98.3471C98.3471 13.9718 97.8246 12.8515 96.7737 12.058L95.5685 13.654ZM96.3471 15.304C96.3471 16.1415 96.0201 16.8042 95.281 17.3616L96.4852 18.9584C97.6982 18.0438 98.3471 16.8025 98.3471 15.304H96.3471ZM95.2895 17.3553C94.555 17.8971 93.3841 18.24 91.6351 18.24V20.24C93.5982 20.24 95.2593 19.8629 96.4768 18.9647L95.2895 17.3553Z" fill="#161616"/>
</svg>
