<svg width="66" height="21" viewBox="0 0 66 21" fill="none" xmlns="http://www.w3.org/2000/svg">
<path d="M23.3333 7L24.2906 7.2891L24.6799 6H23.3333V7ZM19.7093 19V20H20.4519L20.6665 19.2891L19.7093 19ZM14.8133 19L13.8504 19.27L14.0551 20H14.8133V19ZM12.6533 11.296L13.6161 11.026L12.6479 7.57261L11.6896 11.0288L12.6533 11.296ZM10.5173 19V20H11.2777L11.4809 19.2672L10.5173 19ZM5.64525 19L4.68848 19.2909L4.90406 20H5.64525V19ZM1.99725 7V6H0.648064L1.04049 7.29086L1.99725 7ZM6.29325 7L7.26931 6.78252L7.09496 6H6.29325V7ZM8.30925 16.048L7.33319 16.2655L9.27708 16.2996L8.30925 16.048ZM10.6613 7V6H9.88796L9.69342 6.74841L10.6613 7ZM14.6933 7L15.6617 6.75082L15.4685 6H14.6933V7ZM17.0213 16.048L16.0528 16.2972L17.9968 16.2679L17.0213 16.048ZM19.0612 7V6H18.2616L18.0857 6.78006L19.0612 7ZM22.376 6.7109L18.752 18.7109L20.6665 19.2891L24.2906 7.2891L22.376 6.7109ZM19.7093 18H14.8133V20H19.7093V18ZM15.7761 18.73L13.6161 11.026L11.6904 11.566L13.8504 19.27L15.7761 18.73ZM11.6896 11.0288L9.5536 18.7328L11.4809 19.2672L13.6169 11.5632L11.6896 11.0288ZM10.5173 18H5.64525V20H10.5173V18ZM6.60202 18.7091L2.95402 6.70914L1.04049 7.29086L4.68848 19.2909L6.60202 18.7091ZM1.99725 8H6.29325V6H1.99725V8ZM5.31718 7.21748L7.33319 16.2655L9.28532 15.8305L7.26931 6.78252L5.31718 7.21748ZM9.27708 16.2996L11.6291 7.25159L9.69342 6.74841L7.34142 15.7964L9.27708 16.2996ZM10.6613 8H14.6933V6H10.6613V8ZM13.7248 7.24918L16.0528 16.2972L17.9897 15.7988L15.6617 6.75082L13.7248 7.24918ZM17.9968 16.2679L20.0368 7.21994L18.0857 6.78006L16.0457 15.8281L17.9968 16.2679ZM19.0612 8H23.3333V6H19.0612V8ZM35.2003 8.416L34.4932 9.12311L34.4983 9.12823L34.5035 9.13328L35.2003 8.416ZM35.2003 17.608L35.9022 18.3202L35.9023 18.3202L35.2003 17.608ZM25.8643 17.608L25.1572 18.3151L25.1623 18.3202L25.1675 18.3253L25.8643 17.608ZM25.8643 8.416L26.5662 9.12825L26.5663 9.12818L25.8643 8.416ZM28.8403 10.456L28.0199 9.88421L28.8403 10.456ZM28.8403 15.544L28.0199 16.1158L28.8403 15.544ZM32.2483 15.544L31.4279 14.9722V14.9722L32.2483 15.544ZM32.2483 10.456L31.4279 11.0278L32.2483 10.456ZM30.5443 7.76C32.3572 7.76 33.6255 8.25545 34.4932 9.12311L35.9074 7.70889C34.5671 6.36855 32.7315 5.76 30.5443 5.76V7.76ZM34.5035 9.13328C35.3821 9.98675 35.8803 11.2278 35.8803 13H37.8803C37.8803 10.8362 37.2585 9.02125 35.8971 7.69872L34.5035 9.13328ZM35.8803 13C35.8803 14.7715 35.3823 16.0245 34.4983 16.8958L35.9023 18.3202C37.2583 16.9835 37.8803 15.1645 37.8803 13H35.8803ZM34.4984 16.8958C33.6314 17.7502 32.3611 18.24 30.5443 18.24V20.24C32.7275 20.24 34.5613 19.6418 35.9022 18.3202L34.4984 16.8958ZM30.5443 18.24C28.7283 18.24 27.4461 17.7505 26.5611 16.8907L25.1675 18.3253C26.5225 19.6415 28.3603 20.24 30.5443 20.24V18.24ZM26.5714 16.9009C25.7008 16.0303 25.2083 14.7756 25.2083 13H23.2083C23.2083 15.1604 23.8198 16.9777 25.1572 18.3151L26.5714 16.9009ZM25.2083 13C25.2083 11.2237 25.701 9.98092 26.5662 9.12825L25.1624 7.70375C23.8196 9.02708 23.2083 10.8403 23.2083 13H25.2083ZM26.5663 9.12818C27.4519 8.2552 28.7322 7.76 30.5443 7.76V5.76C28.3564 5.76 26.5167 6.3688 25.1623 7.70382L26.5663 9.12818ZM30.5443 8.664C29.5214 8.664 28.6127 9.0337 28.0199 9.88421L29.6607 11.0278C29.8039 10.8223 30.0312 10.664 30.5443 10.664V8.664ZM28.0199 9.88421C27.4731 10.6688 27.2883 11.7724 27.2883 13H29.2883C29.2883 11.8916 29.4715 11.2992 29.6607 11.0278L28.0199 9.88421ZM27.2883 13C27.2883 14.2276 27.4731 15.3312 28.0199 16.1158L29.6607 14.9722C29.4715 14.7008 29.2883 14.1084 29.2883 13H27.2883ZM28.0199 16.1158C28.6127 16.9663 29.5214 17.336 30.5443 17.336V15.336C30.0312 15.336 29.8039 15.1777 29.6607 14.9722L28.0199 16.1158ZM30.5443 17.336C31.5672 17.336 32.4759 16.9663 33.0687 16.1158L31.4279 14.9722C31.2847 15.1777 31.0574 15.336 30.5443 15.336V17.336ZM33.0687 16.1158C33.6155 15.3312 33.8003 14.2276 33.8003 13H31.8003C31.8003 14.1084 31.6171 14.7008 31.4279 14.9722L33.0687 16.1158ZM33.8003 13C33.8003 11.7724 33.6155 10.6688 33.0687 9.88421L31.4279 11.0278C31.6171 11.2992 31.8003 11.8916 31.8003 13H33.8003ZM33.0687 9.88421C32.4759 9.0337 31.5672 8.664 30.5443 8.664V10.664C31.0574 10.664 31.2847 10.8223 31.4279 11.0278L33.0687 9.88421ZM47.9338 7.024L48.9261 7.14804L49.0102 6.47477L48.4157 6.14779L47.9338 7.024ZM47.5018 10.48L46.9873 11.3375L48.3037 12.1273L48.4941 10.604L47.5018 10.48ZM46.8538 10.24L46.5716 11.1994L46.598 11.2071L46.6248 11.2134L46.8538 10.24ZM44.0698 10.864L44.7538 11.5935L44.7597 11.5879L44.7656 11.5822L44.0698 10.864ZM43.3018 19V20H44.3018V19H43.3018ZM39.2218 19H38.2218V20H39.2218V19ZM39.2218 7V6H38.2218V7H39.2218ZM42.8218 7L43.8197 6.93532L43.7591 6H42.8218V7ZM42.9898 9.592L41.9919 9.65668L43.9434 9.89313L42.9898 9.592ZM44.3338 7.504L44.9535 8.28889L44.9561 8.28682L44.3338 7.504ZM46.6378 7.76C47.0896 7.76 47.3344 7.8356 47.4519 7.90022L48.4157 6.14779C47.8932 5.8604 47.274 5.76 46.6378 5.76V7.76ZM46.9415 6.89997L46.5095 10.356L48.4941 10.604L48.9261 7.14804L46.9415 6.89997ZM48.0163 9.62251C47.7354 9.45394 47.4106 9.34369 47.0828 9.26658L46.6248 11.2134C46.841 11.2643 46.9483 11.3141 46.9873 11.3375L48.0163 9.62251ZM47.136 9.28063C46.766 9.17181 46.3824 9.12 45.9898 9.12V11.12C46.2052 11.12 46.3977 11.1482 46.5716 11.1994L47.136 9.28063ZM45.9898 9.12C44.9842 9.12 44.0879 9.45424 43.374 10.1458L44.7656 11.5822C45.0758 11.2818 45.4594 11.12 45.9898 11.12V9.12ZM43.3859 10.1345C42.6164 10.8559 42.3018 11.8508 42.3018 12.952H44.3018C44.3018 12.2292 44.4992 11.8321 44.7538 11.5935L43.3859 10.1345ZM42.3018 12.952V19H44.3018V12.952H42.3018ZM43.3018 18H39.2218V20H43.3018V18ZM40.2218 19V7H38.2218V19H40.2218ZM39.2218 8H42.8218V6H39.2218V8ZM41.8239 7.06468L41.9919 9.65668L43.9877 9.52732L43.8197 6.93532L41.8239 7.06468ZM43.9434 9.89313C44.1853 9.12702 44.5362 8.6183 44.9535 8.28888L43.7142 6.71912C42.9154 7.3497 42.3703 8.23298 42.0362 9.29087L43.9434 9.89313ZM44.9561 8.28682C45.3781 7.95136 45.9176 7.76 46.6378 7.76V5.76C45.534 5.76 44.5375 6.06463 43.7116 6.72118L44.9561 8.28682ZM55.5583 14.08L56.4195 13.5717L55.7267 12.398L54.815 13.411L55.5583 14.08ZM53.6143 16.24L52.871 15.571L52.6143 15.8563V16.24H53.6143ZM53.6143 19V20H54.6143V19H53.6143ZM49.5343 19H48.5343V20H49.5343V19ZM49.5343 1.912V0.912H48.5343V1.912H49.5343ZM53.6143 1.912H54.6143V0.912H53.6143V1.912ZM53.6143 12.04H52.6143V14.6257L54.3541 12.7128L53.6143 12.04ZM58.1983 7V6H57.7561L57.4585 6.32715L58.1983 7ZM62.7103 7L63.4394 7.68444L65.0207 6H62.7103V7ZM58.2943 11.704L57.5652 11.0196L57.0318 11.5878L57.4526 12.2439L58.2943 11.704ZM62.9743 19V20H64.8038L63.816 18.4601L62.9743 19ZM58.4623 19L57.6011 19.5083L57.8914 20H58.4623V19ZM54.815 13.411L52.871 15.571L54.3576 16.909L56.3016 14.749L54.815 13.411ZM52.6143 16.24V19H54.6143V16.24H52.6143ZM53.6143 18H49.5343V20H53.6143V18ZM50.5343 19V1.912H48.5343V19H50.5343ZM49.5343 2.912H53.6143V0.912H49.5343V2.912ZM52.6143 1.912V12.04H54.6143V1.912H52.6143ZM54.3541 12.7128L58.9381 7.67285L57.4585 6.32715L52.8745 11.3672L54.3541 12.7128ZM58.1983 8H62.7103V6H58.1983V8ZM61.9812 6.31556L57.5652 11.0196L59.0234 12.3884L63.4394 7.68444L61.9812 6.31556ZM57.4526 12.2439L62.1326 19.5399L63.816 18.4601L59.136 11.1641L57.4526 12.2439ZM62.9743 18H58.4623V20H62.9743V18ZM59.3235 18.4917L56.4195 13.5717L54.6971 14.5883L57.6011 19.5083L59.3235 18.4917Z" fill="#161616"/>
</svg>
